<svg width="16" height="16" viewBox="0 0 16 16" fill="none" xmlns="http://www.w3.org/2000/svg">
<path d="M8.75 1.51036L13.2452 4.10566C13.7093 4.37361 13.9952 4.8688 13.9952 5.4047V10.5953C13.9952 11.1312 13.7093 11.6264 13.2452 11.8943L8.75 14.4896C8.2859 14.7576 7.7141 14.7576 7.25 14.4896L2.75481 11.8943C2.29071 11.6264 2.00481 11.1312 2.00481 10.5953V5.4047C2.00481 4.8688 2.29071 4.37361 2.75481 4.10566L7.25 1.51036C7.7141 1.24241 8.2859 1.24241 8.75 1.51036Z" stroke="#CCCCCC"/>
<mask id="path-2-inside-1_104_19" fill="white">
<path fill-rule="evenodd" clip-rule="evenodd" d="M5.40192 7.56333V8.92267C5.40192 9.27994 5.59252 9.61007 5.90192 9.7887L7.49999 10.7113C7.80939 10.89 8.19059 10.89 8.49999 10.7113L10.0981 9.7887C10.4075 9.61007 10.5981 9.27994 10.5981 8.92267V7.56333L9.25967 8.34406C8.48126 8.79813 7.51872 8.79813 6.74032 8.34406L5.40192 7.56333ZM10.4208 6.50901C10.338 6.38905 10.2286 6.28671 10.0981 6.21135L8.49999 5.2887C8.19059 5.11007 7.80939 5.11007 7.49999 5.2887L5.90192 6.21135C5.77138 6.28671 5.66199 6.38905 5.57914 6.50901L7.24419 7.48029C7.71123 7.75273 8.28875 7.75273 8.7558 7.48028L10.4208 6.50901Z"/>
</mask>
<path fill-rule="evenodd" clip-rule="evenodd" d="M5.40192 7.56333V8.92267C5.40192 9.27994 5.59252 9.61007 5.90192 9.7887L7.49999 10.7113C7.80939 10.89 8.19059 10.89 8.49999 10.7113L10.0981 9.7887C10.4075 9.61007 10.5981 9.27994 10.5981 8.92267V7.56333L9.25967 8.34406C8.48126 8.79813 7.51872 8.79813 6.74032 8.34406L5.40192 7.56333ZM10.4208 6.50901C10.338 6.38905 10.2286 6.28671 10.0981 6.21135L8.49999 5.2887C8.19059 5.11007 7.80939 5.11007 7.49999 5.2887L5.90192 6.21135C5.77138 6.28671 5.66199 6.38905 5.57914 6.50901L7.24419 7.48029C7.71123 7.75273 8.28875 7.75273 8.7558 7.48028L10.4208 6.50901Z" fill="#CCCCCC"/>
<path d="M5.40192 7.56333L5.90579 6.69955L4.40192 5.82229V7.56333H5.40192ZM5.90192 9.7887L6.40192 8.92267L6.40192 8.92267L5.90192 9.7887ZM7.49999 10.7113L6.99999 11.5774L6.99999 11.5774L7.49999 10.7113ZM8.49999 10.7113L8.99999 11.5774L8.99999 11.5774L8.49999 10.7113ZM10.0981 9.7887L9.59807 8.92267L9.59807 8.92267L10.0981 9.7887ZM10.5981 7.56333H11.5981V5.82229L10.0942 6.69955L10.5981 7.56333ZM9.25967 8.34406L8.7558 7.48028L8.7558 7.48028L9.25967 8.34406ZM6.74032 8.34406L6.23644 9.20784L6.23645 9.20784L6.74032 8.34406ZM10.0981 6.21135L10.5981 5.34532L10.5981 5.34532L10.0981 6.21135ZM10.4208 6.50901L10.9247 7.37278L11.8571 6.82889L11.2437 5.94071L10.4208 6.50901ZM8.49999 5.2887L7.99999 6.15472L7.99999 6.15472L8.49999 5.2887ZM7.49999 5.2887L7.99999 6.15472L7.99999 6.15472L7.49999 5.2887ZM5.90192 6.21135L5.40192 5.34532L5.40192 5.34532L5.90192 6.21135ZM5.57914 6.50901L4.75631 5.94071L4.14288 6.82889L5.07527 7.37279L5.57914 6.50901ZM7.24419 7.48029L7.74806 6.61651L7.74806 6.61651L7.24419 7.48029ZM8.7558 7.48028L8.25193 6.61651L8.25193 6.61651L8.7558 7.48028ZM6.40192 8.92267V7.56333H4.40192V8.92267H6.40192ZM6.40192 8.92267L6.40192 8.92267H4.40192C4.40192 9.6372 4.78311 10.2975 5.40192 10.6547L6.40192 8.92267ZM7.99999 9.84532L6.40192 8.92267L5.40192 10.6547L6.99999 11.5774L7.99999 9.84532ZM7.99999 9.84532H7.99999L6.99999 11.5774C7.61879 11.9346 8.38119 11.9346 8.99999 11.5774L7.99999 9.84532ZM9.59807 8.92267L7.99999 9.84532L8.99999 11.5774L10.5981 10.6547L9.59807 8.92267ZM9.59807 8.92267L9.59807 8.92267L10.5981 10.6547C11.2169 10.2975 11.5981 9.63721 11.5981 8.92267H9.59807ZM9.59807 7.56333V8.92267H11.5981V7.56333H9.59807ZM10.0942 6.69955L8.7558 7.48028L9.76354 9.20784L11.1019 8.42711L10.0942 6.69955ZM8.7558 7.48028C8.28876 7.75273 7.71123 7.75273 7.24419 7.48029L6.23645 9.20784C7.32621 9.84354 8.67377 9.84354 9.76354 9.20784L8.7558 7.48028ZM7.24419 7.48029L5.90579 6.69955L4.89805 8.42711L6.23644 9.20784L7.24419 7.48029ZM9.59807 7.07737L9.59802 7.0773L11.2437 5.94071C11.078 5.70081 10.859 5.49599 10.5981 5.34532L9.59807 7.07737ZM7.99999 6.15472L9.59807 7.07737L10.5981 5.34532L8.99999 4.42267L7.99999 6.15472ZM7.99999 6.15472L7.99999 6.15472L8.99999 4.42267C8.38119 4.06541 7.61879 4.06541 6.99999 4.42267L7.99999 6.15472ZM6.40192 7.07737L7.99999 6.15472L6.99999 4.42267L5.40192 5.34532L6.40192 7.07737ZM6.40196 7.0773L6.40192 7.07737L5.40192 5.34532C5.14096 5.49599 4.922 5.70081 4.75631 5.94071L6.40196 7.0773ZM5.07527 7.37279L6.74032 8.34406L7.74806 6.61651L6.08301 5.64523L5.07527 7.37279ZM6.74032 8.34406C7.51872 8.79813 8.48126 8.79813 9.25967 8.34406L8.25193 6.61651C8.09625 6.70732 7.90374 6.70732 7.74806 6.61651L6.74032 8.34406ZM9.25967 8.34406L10.9247 7.37278L9.91698 5.64523L8.25193 6.61651L9.25967 8.34406Z" fill="#CCCCCC" mask="url(#path-2-inside-1_104_19)"/>
</svg>
