<svg width="16" height="16" viewBox="0 0 16 16" fill="none" xmlns="http://www.w3.org/2000/svg">
<path d="M11.8946 4L12 6.11062H11.7329C11.6813 5.73894 11.611 5.47345 11.522 5.31416C11.3767 5.05752 11.1822 4.86947 10.9385 4.75C10.6995 4.62611 10.3831 4.56416 9.98946 4.56416H8.64675V11.4403C8.64675 11.9934 8.71002 12.3385 8.83656 12.4757C9.01465 12.6615 9.28881 12.7544 9.65905 12.7544H9.98946V13H5.94728V12.7544H6.28471C6.68776 12.7544 6.97364 12.6394 7.14235 12.4093C7.24546 12.2677 7.29701 11.9447 7.29701 11.4403V4.56416H6.15114C5.70592 4.56416 5.38957 4.59513 5.20211 4.65708C4.95841 4.74115 4.74985 4.90265 4.57645 5.14159C4.40305 5.38053 4.29994 5.70354 4.26714 6.11062H4L4.11248 4H11.8946Z" fill="#CCCCCC"/>
</svg>
